<svg width="91" height="74" viewBox="0 0 91 74" fill="none" xmlns="http://www.w3.org/2000/svg">
<path d="M34.3365 41.4593C34.66 35.7235 37.4796 30.6554 41.7518 27.0744C45.9325 23.554 51.5474 21.3993 57.7115 21.3993C63.8452 21.3993 69.4601 23.551 73.6407 27.0744C77.9129 30.6554 80.7203 35.7235 81.056 41.4593C81.3795 47.3468 78.9962 52.8398 74.8308 56.9064C70.5586 61.0337 64.5165 63.6437 57.7115 63.6437C50.9065 63.6437 44.8339 61.0519 40.5923 56.9064C36.4116 52.8398 34.0314 47.3772 34.367 41.4897L34.3365 41.4593Z" fill="white"/>
<path d="M47.122 40.7568C47.2882 37.8093 48.7372 35.2049 50.9326 33.3646C53.081 31.5555 55.9665 30.4482 59.1342 30.4482C62.2862 30.4482 65.1716 31.554 67.32 33.3646C69.5154 35.2049 70.9581 37.8093 71.1306 40.7568C71.2969 43.7824 70.0721 46.6052 67.9316 48.695C65.7361 50.8159 62.6312 52.1572 59.1342 52.1572C55.6372 52.1572 52.5165 50.8253 50.3368 48.695C48.1884 46.6052 46.9652 43.798 47.1377 40.7725L47.122 40.7568Z" fill="#265787"/>
<path d="M28.3041 46.995C28.3245 48.1491 28.6946 50.3948 29.2497 52.1415C30.4164 55.8532 32.4017 59.2843 35.146 62.2942C37.9687 65.3977 41.45 67.893 45.4645 69.6709C49.6829 71.5267 54.2619 72.478 59.0135 72.478C63.765 72.4718 68.3441 71.5049 72.5624 69.6241C76.577 67.8306 80.0583 65.3353 82.881 62.2162C85.641 59.1751 87.6168 55.7441 88.7773 52.0324C89.3653 50.1609 89.737 48.2582 89.886 46.3556C90.0318 44.4841 89.9707 42.5971 89.7025 40.71C89.1788 37.0451 87.8991 33.5985 85.9389 30.4794C84.1512 27.5942 81.8303 25.0833 79.0703 22.9623L79.0766 22.9577L51.3201 1.74777C51.295 1.72906 51.2746 1.70877 51.2479 1.69161C49.4289 0.300494 46.3553 0.30518 44.3637 1.69942C42.3408 3.10925 42.1055 5.44233 43.9089 6.90831L43.9011 6.91611L55.4898 16.289L20.2061 16.3264H20.159C17.2423 16.3296 14.4352 18.2291 13.8864 20.6464C13.3156 23.0949 15.2977 25.1379 18.34 25.1379L18.3353 25.1488L36.2124 25.1145L4.22178 49.4435C4.181 49.4731 4.13709 49.5043 4.09945 49.5339C1.08857 51.8265 0.116308 55.6474 2.01379 58.0491C3.94263 60.4976 8.03555 60.5132 11.0778 58.0631L28.4844 43.8712C28.4844 43.8712 28.2304 45.7895 28.2508 46.9279L28.3041 46.995ZM73.1537 53.4047C69.5626 57.0385 64.5287 59.1127 59.1029 59.1127C53.6614 59.122 48.6275 57.0853 45.0364 53.4516C43.2801 51.6737 41.9942 49.6462 41.1944 47.4785C40.415 45.3419 40.1124 43.0805 40.3131 40.8036C40.5029 38.5734 41.1709 36.4368 42.242 34.5186C43.2895 32.6315 44.7353 30.9161 46.5074 29.4657C50.0044 26.6429 54.4423 25.0989 59.0841 25.0989C63.7415 25.0927 68.1794 26.6101 71.6764 29.4345C73.4485 30.8755 74.8912 32.5848 75.9418 34.4718C77.0129 36.3901 77.6825 38.511 77.8707 40.7568C78.0683 43.0337 77.7656 45.2951 76.9863 47.4317C76.1896 49.615 74.9006 51.6425 73.1442 53.4203L73.1537 53.4047Z" fill="#EA7600"/>
</svg>
