<svg width="49" height="74" viewBox="0 0 49 74" fill="none" xmlns="http://www.w3.org/2000/svg">
<g clip-path="url(#clip0_1113_180)">
<path d="M12.2524 74C19.0131 74 24.5 68.4747 24.5 61.6667V49.3334H12.2524C5.49179 49.3334 0.00488281 54.8587 0.00488281 61.6667C0.00488281 68.4747 5.49179 74 12.2524 74Z" fill="#0ACF83"/>
<path d="M0.00488281 37C0.00488281 30.192 5.49179 24.6666 12.2524 24.6666H24.5V49.3333H12.2524C5.49179 49.3333 0.00488281 43.808 0.00488281 37Z" fill="#A259FF"/>
<path d="M0.00524902 12.3333C0.00524902 5.52533 5.49215 0 12.2528 0H24.5003V24.6667H12.2528C5.49215 24.6667 0.00524902 19.1413 0.00524902 12.3333Z" fill="#F24E1E"/>
<path d="M24.5 0H36.7476C43.5082 0 48.9951 5.52533 48.9951 12.3333C48.9951 19.1413 43.5082 24.6667 36.7476 24.6667H24.5V0Z" fill="#FF7262"/>
<path d="M48.9951 37C48.9951 43.808 43.5082 49.3333 36.7476 49.3333C29.9869 49.3333 24.5 43.808 24.5 37C24.5 30.192 29.9869 24.6666 36.7476 24.6666C43.5082 24.6666 48.9951 30.192 48.9951 37Z" fill="#1ABCFE"/>
</g>
<defs>
<clipPath id="clip0_1113_180">
<rect width="49" height="74" fill="white"/>
</clipPath>
</defs>
</svg>
