<svg width="65" height="41" viewBox="0 0 65 41" fill="none" xmlns="http://www.w3.org/2000/svg">
<path d="M54.539 12.8477C54.4374 10.6133 54.7421 8.63281 53.7265 6.95703C51.289 2.79297 45.1952 0.355469 33.0077 0.355469V0.710938H32.7538H33.0077V0.355469C20.8202 0.355469 14.4218 2.79297 11.9843 7.00781C11.0195 8.73438 11.121 10.6641 10.9687 12.8984C10.8671 14.6758 10.0546 16.5547 10.4101 18.5859C10.8163 21.2266 10.9687 23.8672 11.3749 26.3047C11.6796 28.2852 14.4218 29.9609 14.6757 31.8398C15.3866 37.0195 20.7695 39.4062 32.957 39.4062V39.8125H32.6523H32.703H33.0077V39.4062C45.1952 39.4062 50.3749 37.0195 51.0351 31.8398C51.289 29.9102 53.828 28.2852 54.1327 26.3047C54.539 23.8672 54.6913 21.2266 55.0976 18.5859C55.453 16.5547 54.6405 14.625 54.539 12.8477Z" fill="#EFCCA3"/>
<path d="M32.8047 14.6758C34.9883 14.7266 36.5117 16.0977 37.9336 17.3672C39.6094 18.8398 42.4531 19.8555 43.6211 21.125C44.7891 22.3945 46.3125 23.6641 46.8711 25.6445C47.4297 27.625 47.582 30.1641 47.582 30.8242C47.582 31.4844 47.9375 31.332 48.9531 30.8242C51.3398 29.6563 53.9805 26.5078 53.9805 26.5078C53.6758 28.4883 51.0859 30.2656 50.832 32.1445C50.2227 37.3242 45.1953 39.8125 32.7539 39.8125H32.7031H33.0078" fill="#CCAC8D"/>
<path d="M40.8281 10.7149C41.2852 12.2891 42.9102 17.6211 39.7617 15.8438C39.7617 15.8438 41.082 16.6055 41.8945 19.5C42.7578 22.3945 44.8398 22.75 44.8398 22.75C44.8398 22.75 48.2422 23.4102 50.7812 21.2266C52.9141 19.3985 53.2695 16.1485 52.3555 13.6602C51.4414 11.2227 49.8164 10.461 47.4297 9.95314C45.043 9.39455 40.2695 8.93752 40.8281 10.7149Z" fill="#CCAC8D"/>
<path d="M46.8711 20.9727C49.3391 20.9727 51.3398 18.9719 51.3398 16.5039C51.3398 14.0359 49.3391 12.0352 46.8711 12.0352C44.4031 12.0352 42.4023 14.0359 42.4023 16.5039C42.4023 18.9719 44.4031 20.9727 46.8711 20.9727Z" fill="#161A1D"/>
<path d="M45.7031 15.6914C46.3482 15.6914 46.8711 15.1685 46.8711 14.5234C46.8711 13.8784 46.3482 13.3555 45.7031 13.3555C45.0581 13.3555 44.5352 13.8784 44.5352 14.5234C44.5352 15.1685 45.0581 15.6914 45.7031 15.6914Z" fill="white"/>
<path d="M40.0664 16.3008C40.0664 16.3008 44.0781 19.043 46.2617 21.7344C48.4453 24.4258 48.3945 24.9336 48.3945 24.9336L46.8203 25.6445C46.8203 25.6445 44.5859 21.4297 41.8437 19.8555C39.0508 18.2812 38.7461 16.9609 38.7461 16.9609L40.0664 16.3008Z" fill="#EFCCA3"/>
<path d="M32.957 14.6758C30.7734 14.7266 29.1484 16.0977 27.6758 17.3672C26 18.8398 23.0547 19.8555 21.8867 21.125C20.7187 22.3945 19.1445 23.6641 18.5859 25.6445C18.0273 27.625 17.8242 30.1641 17.8242 30.8242C17.8242 31.4844 17.9258 31.5352 16.4531 30.8242C14.0664 29.707 11.4258 26.5078 11.4258 26.5078C11.7305 28.4883 14.3203 30.2656 14.5742 32.1445C15.2852 37.3242 20.3125 39.8125 32.7539 39.8125H32.8047H33.0078" fill="#CCAC8D"/>
<path d="M44.7382 23.2578C42.3007 20.2617 38.3906 17.4688 32.957 17.4688H32.9062C27.4726 17.4688 23.5625 20.2617 21.125 23.2578C18.5859 26.3555 18.789 27.5742 18.789 30.5195C18.789 41.1836 22.5468 38.1367 25.0351 39.457C27.5742 40.7266 30.2148 40.3203 32.9062 40.3203H32.957C35.6992 40.3203 38.289 40.6758 40.8281 39.4062C43.3164 38.1367 47.0742 41.2852 47.0742 30.6211C47.125 27.6758 47.2773 26.3555 44.7382 23.2578Z" fill="#56332B"/>
<path d="M32.7031 20.1094C32.7031 20.1094 32.3477 25.0352 31.6367 26L32.957 25.6953L32.7031 20.1094Z" fill="#442823"/>
<path d="M33.0586 20.1094C33.0586 20.1094 33.4141 25.0352 34.125 26L32.8047 25.6953L33.0586 20.1094Z" fill="#442823"/>
<path d="M28.793 18.9414C28.2852 17.7734 30.1133 15.8945 33.0078 15.8438C35.9024 15.8438 37.7305 17.7227 37.2227 18.9414C36.7149 20.1602 34.8867 20.5156 33.0078 20.5664C31.1797 20.5156 29.3008 20.1602 28.793 18.9414Z" fill="#56332B"/>
<path d="M33.0078 20.1094C33.0078 19.9062 34.7344 19.8555 35.6484 19.2461C35.6484 19.2461 33.7695 19.8555 33.3633 19.6016C32.957 19.3984 32.8555 18.7891 32.8555 18.7891C32.8555 18.7891 32.7031 19.3984 32.3984 19.6016C32.043 19.8047 29.9102 19.2461 29.9102 19.2461C29.9102 19.2461 32.7539 19.957 32.7539 20.1094C32.7539 20.2617 32.7031 20.7695 32.7031 21.125C32.7031 22.3945 32.7031 25.543 32.9063 25.7969C33.2109 26.2539 33.1094 22.3945 33.1094 21.125C33.0586 20.7187 33.0586 20.3125 33.0078 20.1094Z" fill="#161A1D"/>
<path d="M33.1094 26.9141C33.9727 26.9141 35.4961 27.5234 36.8672 28.4883C35.5469 27.0156 33.9727 26 33.1094 26C32.1953 26 30.2656 27.1172 28.8945 28.7422C30.3164 27.625 32.1445 26.9141 33.1094 26.9141Z" fill="#7F4A41"/>
<path d="M32.7539 35.9023C30.8242 35.9023 28.9453 35.293 27.2187 34.8359C26.8633 34.7344 26.5078 34.9883 26.1523 34.8867C22.9531 33.8711 20.3633 32.1445 18.7891 29.9609C18.7891 30.1133 18.7891 30.3164 18.7891 30.4687C18.7891 41.1328 22.5469 38.1367 25.0352 39.4062C27.5742 40.6758 30.2148 40.2695 32.9063 40.2695H32.957C35.6992 40.2695 38.2891 40.625 40.8281 39.3555C43.3164 38.0859 47.0742 41.1836 47.0742 30.5195C47.0742 30.1133 47.0742 29.707 47.125 29.3516C45.6523 31.7383 42.9609 33.6172 39.6094 34.7344C39.3047 34.8359 38.5938 34.582 38.2891 34.6328C36.4609 35.2422 34.8359 35.9023 32.7539 35.9023Z" fill="#442823"/>
<path d="M27.9297 30.1641C27.9297 30.1641 26.6602 33.9727 27.5234 35.6484L26.3555 35.1406C26.3555 35.1406 27.2187 31.2813 27.9297 30.1641Z" fill="#442823"/>
<path d="M37.9844 30.1641C37.9844 30.1641 39.2539 33.9727 38.3906 35.6484L39.5586 35.1406C39.5586 35.1406 38.6445 31.2813 37.9844 30.1641Z" fill="#442823"/>
<path d="M24.6797 10.7149C24.2226 12.2891 22.5976 17.6211 25.7461 15.8438C25.7461 15.8438 24.4258 16.6055 23.6133 19.5C22.8008 22.3945 20.6679 22.75 20.6679 22.75C20.6679 22.75 17.2656 23.4102 14.7265 21.2266C12.5937 19.3985 12.2383 16.1485 13.1523 13.6602C14.0664 11.1719 15.6914 10.461 18.0781 9.95314C20.4648 9.39455 25.1875 8.93752 24.6797 10.7149Z" fill="#CCAC8D"/>
<path d="M32.957 26C34.3281 26 38.5937 28.9453 38.6445 32.5508C38.6445 32.5 38.6445 32.4492 38.6445 32.3477C38.6445 28.5898 35.1914 25.5938 32.957 25.5938C30.7227 25.5938 27.2695 28.6406 27.2695 32.3477C27.2695 32.3984 27.2695 32.4492 27.2695 32.5508C27.3203 28.9453 31.5859 26 32.957 26Z" fill="#161A1D"/>
<path d="M34.0654 18.969C34.2827 18.913 34.3736 18.5374 34.2686 18.13C34.1635 17.7227 33.9022 17.4379 33.685 17.4939C33.4677 17.5499 33.3768 17.9256 33.4818 18.3329C33.5869 18.7403 33.8481 19.0251 34.0654 18.969Z" fill="#331712"/>
<path d="M31.4553 18.9615C31.6696 19.028 31.9444 18.7562 32.069 18.3544C32.1936 17.9526 32.121 17.573 31.9067 17.5065C31.6924 17.44 31.4176 17.7118 31.293 18.1136C31.1683 18.5154 31.241 18.895 31.4553 18.9615Z" fill="#331712"/>
<path d="M18.8906 20.9727C21.3586 20.9727 23.3594 18.9719 23.3594 16.5039C23.3594 14.0359 21.3586 12.0352 18.8906 12.0352C16.4226 12.0352 14.4219 14.0359 14.4219 16.5039C14.4219 18.9719 16.4226 20.9727 18.8906 20.9727Z" fill="#161A1D"/>
<path d="M20.0586 15.6914C20.7036 15.6914 21.2266 15.1685 21.2266 14.5234C21.2266 13.8784 20.7036 13.3555 20.0586 13.3555C19.4135 13.3555 18.8906 13.8784 18.8906 14.5234C18.8906 15.1685 19.4135 15.6914 20.0586 15.6914Z" fill="white"/>
<path d="M34.2773 16.5547C34.2773 16.5039 33.1094 17.0625 32.8047 17.1132C32.5 17.0625 31.332 16.5039 31.332 16.5547C31.332 16.5547 32.2969 16.5547 32.8047 16.5547C33.3125 16.5547 34.2773 16.5547 34.2773 16.5547Z" fill="#7F4A41"/>
<path d="M25.3906 16.3008C25.3906 16.3008 21.3789 19.043 19.1953 21.7344C17.0117 24.4258 17.0625 24.9336 17.0625 24.9336L18.6367 25.6445C18.6367 25.6445 20.8711 21.4297 23.6133 19.8555C26.3554 18.2812 26.7109 16.9609 26.7109 16.9609L25.3906 16.3008Z" fill="#EFCCA3"/>
<path d="M16.6055 8.17578C16.6055 8.17578 15.2344 11.9336 12.1875 13.5078C12.1875 13.5078 16.9609 12.9492 16.6055 8.17578Z" fill="#CCAC8D"/>
<path d="M48.6484 8.17578C48.6484 8.17578 50.0195 11.9336 53.0664 13.5078C53.0664 13.5078 48.293 12.9492 48.6484 8.17578Z" fill="#CCAC8D"/>
<path d="M39.9648 15.1836C39.9648 15.1836 36.9688 12.0352 32.957 11.9336C32.9063 11.9336 33.0586 11.9336 33.0078 11.9336C32.957 11.9336 33.0586 11.9336 33.0586 11.9336C28.9961 12.0352 26.0508 15.1836 26.0508 15.1836C29.5547 12.7461 32.5508 12.7969 33.0586 12.7969C33.0078 12.7969 36.4609 12.7461 39.9648 15.1836Z" fill="#CCAC8D"/>
<path d="M36.4609 8.58203C36.4609 8.58203 34.9375 6.44922 32.9063 6.39844H32.957H33.0078C31.4844 6.44922 29.5039 8.58203 29.5039 8.58203C31.2305 6.90625 33.0078 6.95703 33.0078 6.95703C33.0078 6.95703 34.6836 6.90625 36.4609 8.58203Z" fill="#CCAC8D"/>
<path d="M18.8906 24.1719C18.8906 24.1719 16.5039 25.3398 14.7773 24.6289H14.7266C13.2031 23.7656 12.4414 21.1758 12.4414 21.1758C12.4414 21.1758 13.9648 25.7461 18.8906 24.1719Z" fill="#CCAC8D"/>
<path d="M46.7188 24.1719C46.7188 24.1719 49.1055 25.3398 50.832 24.6289C52.8633 23.7656 53.168 21.1758 53.168 21.1758C53.168 21.1758 51.6445 25.7461 46.7188 24.1719Z" fill="#CCAC8D"/>
<path d="M21.6328 7.92188C22.9531 7.66797 25.1367 7.61719 26.8633 8.17578C29.0469 8.9375 27.2695 11.7305 27.7266 11.8828C28.1836 12.0352 28.793 9.95313 32.8555 10.1563C36.9687 10.3594 37.4258 12.1875 37.9844 11.8828C38.543 11.5781 37.4258 6.80469 43.5703 7.92188C43.5703 7.92188 37.1211 6.19531 37.4258 10.8672C37.4258 10.8672 33.7188 8.02344 28.5391 10.5625C28.5898 10.5625 29.9102 6.19532 21.6328 7.92188Z" fill="#CCAC8D"/>
<path d="M44.1289 7.92188C44.2305 7.92188 44.2813 7.97266 44.332 7.97266C44.3828 7.97266 44.2813 7.92188 44.1289 7.92188Z" fill="#CCAC8D"/>
<path d="M19.8555 1.67578C19.8555 1.67578 14.3711 8.58203 13.5586 11.2227C12.7461 13.9141 12.1367 24.9336 11.4258 26.5078L8.88672 15.6406L13.5586 4.31641L19.8555 1.67578Z" fill="#CCAC8D"/>
<path d="M45.6523 1.67578C45.6523 1.67578 51.1367 8.58203 51.9492 11.2227C52.7617 13.9141 53.3711 24.9336 54.082 26.5078L56.6211 15.6406L51.9492 4.31641L45.6523 1.67578Z" fill="#CCAC8D"/>
<path d="M45.3984 1.67579C45.3984 1.67579 51.289 6.60157 53.0156 12.2891C54.7422 17.9766 54.0312 24.8828 55.3515 25.7461C57.2304 26.9649 59.3633 19.7031 60.0742 18.9414C61.1914 17.7227 64.8984 14.625 65.1523 14.0664C65.4062 13.5078 57.6367 5.02736 54.2343 3.35158C50.1211 1.42189 45.0429 1.26954 45.3984 1.67579Z" fill="#56332B"/>
<path d="M50.4258 4.72266C50.4258 4.72266 57.3828 13.6094 57.2812 24.6797L60.0742 18.9922C60.0234 18.9922 57.5859 11.7305 50.4258 4.72266Z" fill="#442823"/>
<path d="M19.8554 1.67579C19.8554 1.67579 13.9648 6.60157 12.2383 12.2891C10.5117 17.9766 11.2226 24.8828 9.90232 25.7461C8.02341 26.9649 5.8906 19.7031 5.17966 18.9414C4.06247 17.7227 0.355441 14.625 0.101535 14.0664C-0.152371 13.5078 7.61716 5.02736 11.0195 3.35158C15.1328 1.42189 20.2109 1.26954 19.8554 1.67579Z" fill="#56332B"/>
<path d="M14.8281 4.72266C14.8281 4.72266 7.87109 13.6094 7.97266 24.6797L5.23047 18.9922C5.23047 18.9922 7.66797 11.7305 14.8281 4.72266Z" fill="#442823"/>
<path d="M11.0703 24.8828C11.0703 24.8828 11.5781 27.625 12.3906 28.4883C13.2031 29.3515 12.6445 27.8281 12.6445 27.8281C12.6445 27.8281 11.7813 27.3711 11.9336 23.8672C12.0859 20.3633 11.0703 24.8828 11.0703 24.8828Z" fill="#CCAC8D"/>
<path d="M54.3867 24.8828C54.3867 24.8828 53.8789 27.625 53.0664 28.4883C52.2539 29.3515 52.8125 27.8281 52.8125 27.8281C52.8125 27.8281 53.6758 27.3711 53.5234 23.8672C53.3711 20.3633 54.3867 24.8828 54.3867 24.8828Z" fill="#CCAC8D"/>
<path d="M27.6758 23.207C27.9001 23.207 28.082 23.0251 28.082 22.8008C28.082 22.5764 27.9001 22.3945 27.6758 22.3945C27.4514 22.3945 27.2695 22.5764 27.2695 22.8008C27.2695 23.0251 27.4514 23.207 27.6758 23.207Z" fill="#442823"/>
<path d="M25.3398 25.6445C25.5642 25.6445 25.7461 25.4626 25.7461 25.2383C25.7461 25.0139 25.5642 24.832 25.3398 24.832C25.1155 24.832 24.9336 25.0139 24.9336 25.2383C24.9336 25.4626 25.1155 25.6445 25.3398 25.6445Z" fill="#442823"/>
<path d="M24.5781 23.207C24.8025 23.207 24.9844 23.0251 24.9844 22.8008C24.9844 22.5764 24.8025 22.3945 24.5781 22.3945C24.3538 22.3945 24.1719 22.5764 24.1719 22.8008C24.1719 23.0251 24.3538 23.207 24.5781 23.207Z" fill="#442823"/>
<path d="M37.5781 23.207C37.8025 23.207 37.9844 23.0251 37.9844 22.8008C37.9844 22.5764 37.8025 22.3945 37.5781 22.3945C37.3538 22.3945 37.1719 22.5764 37.1719 22.8008C37.1719 23.0251 37.3538 23.207 37.5781 23.207Z" fill="#442823"/>
<path d="M39.9141 25.6445C40.1384 25.6445 40.3203 25.4626 40.3203 25.2383C40.3203 25.0139 40.1384 24.832 39.9141 24.832C39.6897 24.832 39.5078 25.0139 39.5078 25.2383C39.5078 25.4626 39.6897 25.6445 39.9141 25.6445Z" fill="#442823"/>
<path d="M40.6758 23.207C40.9001 23.207 41.082 23.0251 41.082 22.8008C41.082 22.5764 40.9001 22.3945 40.6758 22.3945C40.4514 22.3945 40.2695 22.5764 40.2695 22.8008C40.2695 23.0251 40.4514 23.207 40.6758 23.207Z" fill="#442823"/>
</svg>
