<svg width="62" height="62" viewBox="0 0 62 62" fill="none" xmlns="http://www.w3.org/2000/svg">
<path d="M30.9483 36.146C33.8132 36.146 36.1357 33.8236 36.1357 30.9587C36.1357 28.0938 33.8132 25.7714 30.9483 25.7714C28.0834 25.7714 25.761 28.0938 25.761 30.9587C25.761 33.8236 28.0834 36.146 30.9483 36.146Z" fill="#00D8FF"/>
<path d="M30.9483 42.842C23.6633 42.842 17.298 41.9844 12.5343 40.3517C9.44462 39.2977 6.81995 37.8924 4.94962 36.2907C2.96562 34.596 1.91162 32.7464 1.91162 30.9587C1.91162 27.528 5.67295 24.1697 11.9866 21.979C17.1533 20.181 23.8906 19.1787 30.938 19.1787C37.8613 19.1787 44.5056 20.15 49.6413 21.9274C52.6483 22.9607 55.18 24.304 56.978 25.792C58.931 27.4247 59.9643 29.2124 59.9643 30.9587C59.9643 34.5237 55.7586 38.13 48.98 40.3724C44.1853 41.9637 37.7786 42.842 30.9483 42.842ZM30.9483 21.6587C24.2626 21.6587 17.6493 22.63 12.8133 24.3144C7.00595 26.3397 4.40195 29.109 4.40195 30.9587C4.40195 32.8807 7.20229 35.9084 13.3403 38.006C17.8456 39.5457 23.9423 40.362 30.9483 40.362C37.5203 40.362 43.648 39.5354 48.205 38.0164C54.5806 35.898 57.4946 32.8704 57.4946 30.9587C57.4946 29.977 56.7506 28.8197 55.397 27.6934C53.8366 26.3914 51.5633 25.203 48.8456 24.2627C43.958 22.5887 37.603 21.6587 30.9483 21.6587Z" fill="#00D8FF"/>
<path d="M19.1786 56.8126C18.1246 56.8126 17.1946 56.5853 16.4093 56.1306C13.4436 54.4153 12.4103 49.476 13.6606 42.9143C14.6836 37.5306 17.1843 31.2066 20.708 25.0996C24.1696 19.1063 28.3236 13.8363 32.426 10.2713C34.8233 8.18398 37.2516 6.65465 39.4423 5.84865C41.8293 4.97031 43.896 4.97031 45.4046 5.83831C48.4943 7.61565 49.5173 13.0716 48.0706 20.057C47.0476 25.017 44.609 31 41.199 36.921C37.5616 43.2243 33.635 48.3083 29.8426 51.6253C27.3833 53.7746 24.8516 55.3453 22.537 56.1616C21.328 56.5956 20.1913 56.8126 19.1786 56.8126ZM21.7723 25.7196L22.847 26.3396C19.5093 32.1263 17.0396 38.3366 16.089 43.3793C14.942 49.4243 16.0476 53.0616 17.639 53.9813C18.0316 54.2086 18.5483 54.3326 19.1786 54.3326C21.235 54.3326 24.4693 53.0306 28.21 49.7653C31.7956 46.6343 35.5466 41.757 39.0496 35.6913C42.3356 29.9976 44.671 24.273 45.6423 19.5713C46.996 12.989 45.8283 8.95898 44.1646 7.99798C43.3173 7.51231 41.943 7.57431 40.2896 8.18398C38.378 8.88665 36.2183 10.261 34.0483 12.152C30.1526 15.5413 26.1743 20.584 22.847 26.35L21.7723 25.7196Z" fill="#00D8FF"/>
<path d="M42.718 56.8437C39.9074 56.8437 36.3424 55.1491 32.6224 51.9457C28.4684 48.3704 24.242 43.0487 20.708 36.9417C17.236 30.9484 14.756 24.7174 13.7124 19.3751C13.1027 16.2544 12.989 13.3921 13.3817 11.0877C13.8157 8.57672 14.8387 6.78905 16.3577 5.91072C19.437 4.12305 24.676 5.96239 30.008 10.7054C33.79 14.0637 37.758 19.1684 41.1784 25.0791C44.826 31.3824 47.275 37.3241 48.2464 42.2634C48.8767 45.4667 48.98 48.4427 48.5357 50.8607C48.0604 53.4337 46.9857 55.2627 45.4357 56.1617C44.6607 56.6164 43.741 56.8437 42.718 56.8437ZM22.8574 35.7017C26.2054 41.4884 30.3594 46.7274 34.2447 50.0651C38.905 54.0744 42.6044 54.9424 44.206 54.0124C45.8697 53.0514 47.089 49.1144 45.8284 42.7491C44.8984 38.0784 42.5527 32.3951 39.0394 26.3294C35.743 20.6357 31.9507 15.7481 28.365 12.5654C23.343 8.10139 19.2717 7.09905 17.608 8.06005C16.7607 8.54572 16.1304 9.77539 15.8307 11.5114C15.4897 13.5161 15.593 16.0787 16.151 18.8997C17.143 23.9734 19.5197 29.9357 22.8574 35.7017Z" fill="#00D8FF"/>
</svg>
