<svg width="59" height="44" viewBox="0 0 59 44" fill="none" xmlns="http://www.w3.org/2000/svg">
<g clip-path="url(#clip0_1123_75)">
<path d="M50.7723 25.2771C48.7096 25.2886 46.9235 25.7813 45.4254 26.5146C44.8723 25.4261 44.3192 24.475 44.227 23.7646C44.1233 22.9396 43.9965 22.4354 44.1233 21.45C44.25 20.4646 44.8262 19.0667 44.8262 18.9521C44.8147 18.849 44.6994 18.3448 43.5125 18.3334C42.3256 18.3219 41.3 18.5625 41.1848 18.8719C41.0696 19.1813 40.8391 19.8917 40.6893 20.625C40.4819 21.7021 38.3155 25.5177 37.0824 27.5229C36.6791 26.7438 36.3334 26.0563 36.2643 25.5063C36.1606 24.6813 36.0338 24.1771 36.1606 23.1917C36.2873 22.2063 36.8635 20.8084 36.8635 20.6938C36.852 20.5906 36.7367 20.0865 35.5498 20.075C34.3629 20.0636 33.3373 20.3042 33.2221 20.6136C33.1069 20.9229 32.9801 21.6563 32.7266 22.3667C32.4846 23.0771 29.6037 29.4479 28.8547 31.1094C28.4744 31.9573 28.1403 32.6334 27.8983 33.0917C27.6563 33.55 27.8867 33.1261 27.8637 33.1719C27.6563 33.5615 27.541 33.7792 27.541 33.7792V33.7906C27.3797 34.0771 27.2069 34.3521 27.1262 34.3521C27.0686 34.3521 26.9533 33.5844 27.1492 32.5302C27.5756 30.3188 28.6127 26.8698 28.6012 26.7438C28.6012 26.6865 28.7971 26.0792 27.9328 25.7698C27.0916 25.4604 26.792 25.9761 26.7229 25.9761C26.6537 25.9761 26.5961 26.1594 26.5961 26.1594C26.5961 26.1594 27.5295 22.275 24.81 22.275C23.1045 22.275 20.7537 24.1198 19.5899 25.8042C18.8524 26.2052 17.2852 27.0531 15.6258 27.9584C14.992 28.3021 14.3352 28.6688 13.7129 29.0011L13.5862 28.8636C10.2905 25.3688 4.19455 22.8938 4.44807 18.1959C4.54026 16.4886 5.13948 11.9854 16.1559 6.53127C25.1787 2.06252 32.4039 3.28856 33.66 6.01564C35.4461 9.91148 29.7996 17.1531 20.4196 18.1959C16.8473 18.5969 14.969 17.2219 14.4965 16.7063C14.001 16.1677 13.9319 16.1448 13.7475 16.2479C13.4479 16.4084 13.6323 16.8896 13.7475 17.1761C14.024 17.8979 15.1764 19.1813 17.1354 19.8229C18.8524 20.3844 23.0469 20.6938 28.1172 18.7459C33.7983 16.5573 38.2348 10.4844 36.9326 5.40835C35.6074 0.240643 26.9879 -1.45519 18.8408 1.42085C13.9895 3.1396 8.73479 5.82085 4.9551 9.33856C0.460961 13.5094 -0.253493 17.1531 0.0461166 18.6656C1.09475 24.0625 8.57346 27.5802 11.5696 30.1813C11.4198 30.2615 11.2815 30.3417 11.1547 30.4104C9.65666 31.1438 3.95256 34.1115 2.52366 37.2511C0.910375 40.8031 2.77717 43.3584 4.0217 43.7021C7.87053 44.7677 11.8115 42.8542 13.9434 39.7031C16.0637 36.5521 15.8102 32.4615 14.8307 30.5938L14.7961 30.525L15.9715 29.8375C16.7321 29.3906 17.4811 28.9781 18.1379 28.6229C17.7692 29.6198 17.5041 30.8 17.3658 32.5188C17.2045 34.5354 18.0342 37.1479 19.1289 38.1792C19.6129 38.6261 20.1891 38.6375 20.5463 38.6375C21.8139 38.6375 22.3901 37.5948 23.0239 36.3459C23.8074 34.8219 24.4989 33.0573 24.4989 33.0573C24.4989 33.0573 23.6346 37.8354 25.9969 37.8354C26.8612 37.8354 27.7254 36.724 28.1172 36.1511V36.1625C28.1172 36.1625 28.1403 36.1281 28.1864 36.0479C28.2785 35.9104 28.3246 35.8302 28.3246 35.8302V35.8073C28.6703 35.2115 29.4424 33.8479 30.5948 31.5906C32.0813 28.6802 33.5102 25.0365 33.5102 25.0365C33.5102 25.0365 33.6485 25.9302 34.0748 27.3969C34.3283 28.2677 34.8815 29.2188 35.3078 30.1469C34.9621 30.6281 34.7547 30.9031 34.7547 30.9031L34.7662 30.9146C34.4897 31.2813 34.1785 31.6709 33.8559 32.0604C32.6805 33.4584 31.2746 35.0511 31.0903 35.5094C30.8713 36.0479 30.9174 36.449 31.3438 36.7698C31.6549 36.999 32.208 37.0448 32.7957 36.999C33.8559 36.9302 34.5934 36.6667 34.9621 36.5063C35.5383 36.3 36.1951 35.9906 36.8289 35.5323C37.9813 34.6844 38.6842 33.4813 38.6151 31.8771C38.5805 30.9948 38.2924 30.124 37.9352 29.299C38.0389 29.15 38.1426 29.0011 38.2463 28.8406C40.067 26.1938 41.4729 23.2834 41.4729 23.2834C41.4729 23.2834 41.6112 24.1771 42.0375 25.6438C42.2565 26.3886 42.6944 27.2021 43.0862 28.0042C41.3807 29.3906 40.309 30.9948 39.9403 32.049C39.2604 33.9969 39.7905 34.8792 40.793 35.0854C41.2424 35.1771 41.8877 34.9709 42.3717 34.7646C42.9709 34.5698 43.6969 34.2375 44.3653 33.7448C45.5176 32.8969 46.6239 31.7167 46.5662 30.124C46.5317 29.3906 46.3358 28.6688 46.0707 27.9813C47.5227 27.3854 49.401 27.0417 51.7864 27.3281C56.9143 27.924 57.9283 31.1094 57.7324 32.4386C57.5365 33.7677 56.4649 34.5011 56.1076 34.7302C55.7504 34.9479 55.6352 35.0281 55.6698 35.1886C55.7158 35.4292 55.8772 35.4177 56.1883 35.3719C56.6147 35.3031 58.8848 34.2834 58.977 31.8313C59.1153 28.6802 56.1076 25.2427 50.7723 25.2771V25.2771ZM11.2239 38.5344C9.52991 40.3792 7.14455 41.0781 6.13049 40.4823C5.03577 39.8521 5.46213 37.1365 7.54787 35.1771C8.81545 33.9854 10.4633 32.8854 11.5465 32.2094C11.7885 32.0604 12.1573 31.8427 12.5951 31.5792C12.6643 31.5334 12.7104 31.5104 12.7104 31.5104C12.791 31.4646 12.8832 31.4073 12.9754 31.35C13.7475 34.1459 13.01 36.5979 11.2239 38.5344V38.5344ZM23.6115 30.1584C23.0239 31.5906 21.7793 35.2688 21.0303 35.0625C20.385 34.8906 19.9932 32.1063 20.9035 29.3563C21.3645 27.9698 22.344 26.3198 22.9201 25.6781C23.8535 24.6469 24.8676 24.3031 25.1211 24.7271C25.4207 25.2771 23.9803 29.2646 23.6115 30.1584ZM33.8328 35.0167C33.5793 35.1427 33.3489 35.2344 33.2451 35.1656C33.1645 35.1198 33.3489 34.9479 33.3489 34.9479C33.3489 34.9479 34.628 33.5844 35.135 32.9542C35.4231 32.5875 35.7688 32.1636 36.1375 31.6823V31.8198C36.1375 33.4698 34.5473 34.5698 33.8328 35.0167V35.0167ZM41.7149 33.2292C41.5305 33.0917 41.5535 32.6677 42.1758 31.3386C42.4178 30.8115 42.9709 29.9292 43.9274 29.0927C44.0426 29.4365 44.1117 29.7688 44.1002 30.0781C44.0887 32.1406 42.6137 32.9084 41.7149 33.2292Z" fill="#CF649A"/>
</g>
<defs>
<clipPath id="clip0_1123_75">
<rect width="59" height="44" fill="white"/>
</clipPath>
</defs>
</svg>
