<svg width="47" height="47" viewBox="0 0 47 47" fill="none" xmlns="http://www.w3.org/2000/svg">
<path d="M41.3913 0H5.50351C2.46401 0 0 2.46401 0 5.50351V41.3913C0 44.4308 2.46401 46.8948 5.50351 46.8948H41.3913C44.4308 46.8948 46.8948 44.4308 46.8948 41.3913V5.50351C46.8948 2.46401 44.4308 0 41.3913 0Z" fill="#3178C6"/>
<path d="M41.3913 0H5.50351C2.46401 0 0 2.46401 0 5.50351V41.3913C0 44.4308 2.46401 46.8948 5.50351 46.8948H41.3913C44.4308 46.8948 46.8948 44.4308 46.8948 41.3913V5.50351C46.8948 2.46401 44.4308 0 41.3913 0Z" fill="#3178C6"/>
<path fill-rule="evenodd" clip-rule="evenodd" d="M29.0288 37.3164V41.9015C29.7742 42.2836 30.6557 42.5702 31.6735 42.7612C32.6913 42.9523 33.764 43.0479 34.8916 43.0479C35.9906 43.0479 37.0346 42.9427 38.0237 42.7326C39.0127 42.5224 39.8799 42.1762 40.6253 41.6938C41.3707 41.2113 41.9608 40.581 42.3957 39.8024C42.8305 39.0239 43.0479 38.0615 43.0479 36.9152C43.0479 36.0842 42.9236 35.3558 42.6752 34.7301C42.4268 34.1044 42.0684 33.548 41.6001 33.0609C41.1319 32.5737 40.5704 32.1367 39.9158 31.7498C39.2612 31.3629 38.523 30.9976 37.7011 30.6536C37.0991 30.4053 36.5591 30.1641 36.0813 29.93C35.6035 29.696 35.1974 29.4573 34.8629 29.2137C34.5284 28.9701 34.2704 28.7121 34.0889 28.4399C33.9073 28.1677 33.8165 27.8596 33.8165 27.5157C33.8165 27.2005 33.8977 26.9163 34.0602 26.6631C34.2227 26.41 34.452 26.1927 34.7482 26.0112C35.0444 25.8297 35.4077 25.6888 35.8377 25.5885C36.2677 25.4882 36.7455 25.4381 37.2711 25.4381C37.6533 25.4381 38.0571 25.4668 38.4824 25.524C38.9076 25.5814 39.3353 25.6698 39.7653 25.7891C40.1953 25.9085 40.6135 26.059 41.0196 26.2405C41.4257 26.422 41.8008 26.6321 42.1449 26.871V22.5867C41.4472 22.3192 40.6851 22.121 39.8585 21.9921C39.0319 21.8631 38.0834 21.7986 37.0131 21.7986C35.9237 21.7986 34.8916 21.9157 33.9169 22.1497C32.9421 22.3837 32.0844 22.749 31.3439 23.2458C30.6032 23.7425 30.0179 24.3753 29.5878 25.1444C29.1578 25.9133 28.9428 26.8328 28.9428 27.9025C28.9428 29.2686 29.337 30.4339 30.1254 31.3987C30.9138 32.3636 32.1107 33.1803 33.7162 33.849C34.3469 34.1069 34.9346 34.3599 35.4793 34.6083C36.0241 34.8567 36.4946 35.1146 36.8912 35.382C37.2878 35.6495 37.6008 35.9408 37.8301 36.2561C38.0595 36.5713 38.1742 36.9295 38.1742 37.3307C38.1742 37.6269 38.1025 37.9015 37.9592 38.1546C37.8158 38.4077 37.5984 38.6274 37.3069 38.8138C37.0155 39 36.6524 39.1457 36.2176 39.2508C35.7827 39.3559 35.2738 39.4084 34.6909 39.4084C33.6971 39.4084 32.7128 39.234 31.738 38.8853C30.7633 38.5367 29.8603 38.0137 29.0288 37.3164ZM21.3206 26.0193H27.2026V22.2566H10.8077V26.0193H16.661V42.773H21.3206V26.0193Z" fill="white"/>
</svg>
